# xmcd
#
# Track frame offsets:
#	150
#	14836
#	25784
#	39471
#	50564
#	64492
#	77106
#	89826
#	106106
#	118979
#	135579
#	145142
#	156377
#	166976
#	178351
#	188104
#	201782
#	217938
#
# Disc length: 3177 seconds
#
# Revision: 4
# Processed by: cddbd v1.5.2PL0 Copyright (c) Steve Scherf et al.
# Submitted via: VUPlayer 2.49
#
DISCID=0e0c6712
DTITLE=Lee Hazlewood - Lee Hazlewood and Friends
DYEAR=2003
DGENRE=Blues
TTITLE0=These Boots Are Made for Walking
TTITLE1=& Suzi Jane - The Girls in Paris
TTITLE2=Feat. Nancy Sinatra - Lady Bird
TTITLE3=The Shaklefords - Muddy, Muddy River
TTITLE4=I Move Around
TTITLE5=Feat. Nancy Sinatra - Jackson
TTITLE6=The Shaklefords - The City Never Sleeps
TTITLE7=& Suzi Jane - Sand
TTITLE8=So Long Babe
TTITLE9=Feat. Nancy Sinatra - Summerwine
TTITLE10=The Shaklefords - Five Feet High and Risin'
TTITLE11=& Suzi Jane - Suzi Jane is Back in Town
TTITLE12=Home =I'm Home=
TTITLE13=Feat. Nancy Sinatra - Greenwich Village Folksong Salesman
TTITLE14=The Shaklefords - Mansion of Tears
TTITLE15=When A Fool Loves A Fool
TTITLE16=Feat. Nancy Sinatra - Some Velvet Morning
TTITLE17=José
EXTD=
EXTT0=ADD
EXTT1=
EXTT2=
EXTT3=
EXTT4=
EXTT5=
EXTT6=
EXTT7=
EXTT8=
EXTT9=
EXTT10=
EXTT11=
EXTT12=
EXTT13=
EXTT14=
EXTT15=
EXTT16=
EXTT17=
PLAYORDER=
